<svg xmlns="http://www.w3.org/2000/svg" viewBox="0 0 398.68 56.42"><defs></defs><title>diversivo v2</title><g id="Capa_2" data-name="Capa 2"><g id="Layer_1" data-name="Layer 1"><path class="cls-1" d="M50,28.06a26.36,26.36,0,0,1-2.6,12.14,24.47,24.47,0,0,1-6.89,8.39,28.5,28.5,0,0,1-9.64,4.84A38.85,38.85,0,0,1,20,55H0V1.44H19.36a48,48,0,0,1,11.2,1.32,28.06,28.06,0,0,1,9.83,4.39,22.58,22.58,0,0,1,7,8.2A27.64,27.64,0,0,1,50,28.06Zm-13.46,0a17,17,0,0,0-1.47-7.53,12.69,12.69,0,0,0-3.94-4.76,15.74,15.74,0,0,0-5.59-2.53,27.27,27.27,0,0,0-6.47-.76H12.63V43.79h6.13A27.73,27.73,0,0,0,25.45,43a15.86,15.86,0,0,0,5.67-2.61,13,13,0,0,0,3.94-4.84A17.06,17.06,0,0,0,36.53,28.06Z"/><path class="cls-1" d="M57.5,55V1.44h13V55Z"/><path class="cls-1" d="M107.62,55H94.68L74.41,1.44H88.94l12.4,38h.3L114,1.44h14.3Z"/><path class="cls-1" d="M132.18,55V1.44h36V12.33H144.65V22.46h22.24V32.82H144.65V43.94h24.89V55Z"/><path class="cls-1" d="M206.35,55,194.72,33.73h-4.41V55H177.68V1.44H198.1a35.44,35.44,0,0,1,7.53.79,19.54,19.54,0,0,1,6.58,2.69,14,14,0,0,1,4.65,5,15.59,15.59,0,0,1,1.74,7.71,14.21,14.21,0,0,1-2.95,9.15,16,16,0,0,1-8.17,5.3l14,22.92Zm-.53-37.14a5.35,5.35,0,0,0-.8-3.06A5.45,5.45,0,0,0,203,13a9,9,0,0,0-2.81-.87,21.08,21.08,0,0,0-3-.23h-6.91V24.35h6.15a20.38,20.38,0,0,0,3.27-.26,10.3,10.3,0,0,0,3-.95,5.74,5.74,0,0,0,2.25-2A5.84,5.84,0,0,0,205.82,17.85Z"/><path class="cls-1" d="M255.35,15.35A11.67,11.67,0,0,0,251,12a12.28,12.28,0,0,0-5.18-1.25,15.52,15.52,0,0,0-2.61.23,6.72,6.72,0,0,0-2.38.87,5.88,5.88,0,0,0-1.78,1.66,4.42,4.42,0,0,0-.72,2.61,4.2,4.2,0,0,0,.57,2.27A5.18,5.18,0,0,0,240.56,20a15.9,15.9,0,0,0,2.61,1.25c1,.37,2.15.76,3.41,1.17q2.71.9,5.67,2a21.06,21.06,0,0,1,5.37,2.91,15.35,15.35,0,0,1,4,4.5,13,13,0,0,1,1.59,6.7,17.58,17.58,0,0,1-1.7,8A16,16,0,0,1,256.94,52a19.77,19.77,0,0,1-6.58,3.25,27.91,27.91,0,0,1-7.64,1.06,31.48,31.48,0,0,1-11.12-2,23.47,23.47,0,0,1-8.92-5.71L231.15,40a15.8,15.8,0,0,0,5.18,4.05,14.08,14.08,0,0,0,6.39,1.62,13,13,0,0,0,2.8-.3,7,7,0,0,0,2.38-1,5,5,0,0,0,1.63-1.82,5.72,5.72,0,0,0,.6-2.72,4.31,4.31,0,0,0-.75-2.57,7.47,7.47,0,0,0-2.16-1.93,17.25,17.25,0,0,0-3.48-1.59c-1.39-.48-3-1-4.72-1.55a42.64,42.64,0,0,1-5-2,16.45,16.45,0,0,1-4.39-2.91A13.33,13.33,0,0,1,226.5,23a14.46,14.46,0,0,1-1.18-6.16,15.13,15.13,0,0,1,1.82-7.64A15.72,15.72,0,0,1,231.91,4a20.41,20.41,0,0,1,6.65-3,30.21,30.21,0,0,1,7.49-.94,27.76,27.76,0,0,1,9.26,1.66,23.9,23.9,0,0,1,8.29,4.92Z"/><path class="cls-1" d="M320.93,55H308L287.72,1.44h14.52l12.41,38h.3l12.33-38h14.29Z"/><path class="cls-1" d="M398.68,28a29.87,29.87,0,0,1-2.19,11.61,26.25,26.25,0,0,1-6.09,9,27,27,0,0,1-9.26,5.79,32.6,32.6,0,0,1-11.65,2,32.19,32.19,0,0,1-11.61-2,27.08,27.08,0,0,1-9.23-5.79,26.25,26.25,0,0,1-6.09-9A29.87,29.87,0,0,1,340.37,28a29.59,29.59,0,0,1,2.19-11.61,25.38,25.38,0,0,1,6.09-8.81A27.09,27.09,0,0,1,357.88,2a33.29,33.29,0,0,1,11.61-2,33.72,33.72,0,0,1,11.65,2,27,27,0,0,1,9.26,5.59,25.38,25.38,0,0,1,6.09,8.81A29.59,29.59,0,0,1,398.68,28Zm-13.84,0a18.54,18.54,0,0,0-1.13-6.5,15.66,15.66,0,0,0-3.14-5.18,14.45,14.45,0,0,0-4.84-3.4,15.19,15.19,0,0,0-6.24-1.25,14.91,14.91,0,0,0-11,4.65,14.58,14.58,0,0,0-3.14,5.18,19,19,0,0,0-1.1,6.5,19.31,19.31,0,0,0,1.13,6.7,16,16,0,0,0,3.14,5.25,14.38,14.38,0,0,0,4.81,3.45,16.12,16.12,0,0,0,12.4,0,14.81,14.81,0,0,0,4.84-3.45,15.58,15.58,0,0,0,3.18-5.25A19.31,19.31,0,0,0,384.84,28Z"/><rect class="cls-1" x="270.8" y="1.44" width="13.01" height="12.76"/><rect class="cls-1" x="270.8" y="41.39" width="13.01" height="13.6"/></g></g></svg>